HIERARCHY
ROOT SpineBase
{
  OFFSET 0.000000 0.000000 0.000000
  CHANNELS 6 Xposition Yposition Zposition Zrotation Xrotation Yrotation
  JOINT SpineMid
  {
    OFFSET 0.000000 31.953400 -0.000000
    CHANNELS 3 Zrotation Xrotation Yrotation
    JOINT SpineShoulder
    {
      OFFSET -0.028502 23.581741 -0.823783
      CHANNELS 3 Zrotation Xrotation Yrotation
      JOINT Neck
      {
        OFFSET -0.030202 7.749510 -0.617312
        CHANNELS 3 Zrotation Xrotation Yrotation
        JOINT Head
        {
          OFFSET -4.489953 13.988706 1.087998
          CHANNELS 3 Zrotation Xrotation Yrotation
          End Site
          {
            OFFSET 0 0 0
          }
        }
      }
      JOINT ShoulderLeft
      {
        OFFSET -3.205056 -0.948681 -19.305075
        CHANNELS 3 Zrotation Xrotation Yrotation
        JOINT ElbowLeft
        {
          OFFSET -20.974659 -19.031692 2.255070
          CHANNELS 3 Zrotation Xrotation Yrotation
          JOINT WristLeft
          {
            OFFSET -12.589254 -3.351762 -17.662845
            CHANNELS 3 Zrotation Xrotation Yrotation
            JOINT HandLeft
            {
              OFFSET -4.182643 -1.117884 -5.462502
              CHANNELS 3 Zrotation Xrotation Yrotation
              JOINT HandTipLeft
              {
                OFFSET -2.340214 2.774213 -1.671584
                CHANNELS 3 Zrotation Xrotation Yrotation
                End Site
                {
                  OFFSET 0 0 0
                }
              }
              JOINT ThumbLeft
              {
                OFFSET -1.417308 -5.911126 -1.835069
                CHANNELS 3 Zrotation Xrotation Yrotation
                End Site
                {
                  OFFSET 0 0 0
                }
              }
            }
          }
        }
      }
      JOINT ShoulderRight
      {
        OFFSET 10.395747 -3.749751 -11.835146
        CHANNELS 3 Zrotation Xrotation Yrotation
        JOINT ElbowRight
        {
          OFFSET 5.817514 -19.642233 -7.024543
          CHANNELS 3 Zrotation Xrotation Yrotation
          JOINT WristRight
          {
            OFFSET -23.344993 -0.701337 -5.390451
            CHANNELS 3 Zrotation Xrotation Yrotation
            JOINT HandRight
            {
              OFFSET -7.218010 1.278512 -1.685929
              CHANNELS 3 Zrotation Xrotation Yrotation
              JOINT HandTipRight
              {
                OFFSET -6.694419 -4.045946 2.215135
                CHANNELS 3 Zrotation Xrotation Yrotation
                End Site
                {
                  OFFSET 0 0 0
                }
              }
              JOINT ThumbRight
              {
                OFFSET -3.129180 2.257642 -5.171983
                CHANNELS 3 Zrotation Xrotation Yrotation
                End Site
                {
                  OFFSET 0 0 0
                }
              }
            }
          }
        }
      }
    }
  }
  JOINT HipLeft
  {
    OFFSET -6.893447 0.061567 0.649422
    CHANNELS 3 Zrotation Xrotation Yrotation
    JOINT KneeLeft
    {
      OFFSET 2.616175 -39.004788 5.627732
      CHANNELS 3 Zrotation Xrotation Yrotation
      JOINT AnkleLeft
      {
        OFFSET 9.667423 -36.115743 7.534728
        CHANNELS 3 Zrotation Xrotation Yrotation
        JOINT FootLeft
        {
          OFFSET -2.432463 -8.985221 -5.031750
          CHANNELS 3 Zrotation Xrotation Yrotation
          End Site
          {
            OFFSET 0 0 0
          }
        }
      }
    }
  }
  JOINT HipRight
  {
    OFFSET 6.120052 0.663924 -8.388156
    CHANNELS 3 Zrotation Xrotation Yrotation
    JOINT KneeRight
    {
      OFFSET 5.644396 -35.382949 -4.037679
      CHANNELS 3 Zrotation Xrotation Yrotation
      JOINT AnkleRight
      {
        OFFSET 13.549674 -37.116691 8.134079
        CHANNELS 3 Zrotation Xrotation Yrotation
        JOINT FootRight
        {
          OFFSET -2.999736 -9.053654 -2.649494
          CHANNELS 3 Zrotation Xrotation Yrotation
          End Site
          {
            OFFSET 0 0 0
          }
        }
      }
    }
  }
}
MOTION
Frames: 13
Frame Time: 0.033333
37.256970 86.727690 371.389192 -0.000000 -0.000000 34.779097 0.000000 0.000000 -34.779097 -0.000000 0.000000 0.000000 -0.000000 0.000000 0.000000 0.000000 0.000000 0.000000 -0.000000 0.000000 0.000000 -0.000000 0.000000 0.000000 -0.000000 0.000000 0.000000 -0.000000 0.000000 0.000000 0.000000 0.000000 0.000000 0.000000 0.000000 0.000000 -0.000000 0.000000 0.000000 -0.000000 0.000000 0.000000 -0.000000 0.000000 0.000000 -0.000000 0.000000 0.000000 0.000000 0.000000 0.000000 0.000000 0.000000 0.000000 0.000000 0.000000 -34.779097 -0.000000 0.000000 0.000000 -0.000000 0.000000 0.000000 0.000000 0.000000 0.000000 0.000000 0.000000 -34.779097 -0.000000 0.000000 0.000000 -0.000000 0.000000 0.000000 0.000000 0.000000 0.000000
37.193488 86.705313 371.322160 -0.076082 0.032063 34.791199 0.044187 -0.069742 -34.791151 -0.000000 0.000000 0.000000 -0.698995 -0.674577 -0.166672 0.000000 0.000000 0.000000 0.133653 -1.403916 1.564438 -0.180231 2.085648 -3.487113 -0.010301 0.031568 -0.101793 0.137576 -0.703510 2.030685 0.000000 0.000000 0.000000 0.000000 0.000000 0.000000 -0.000000 0.000000 0.000000 0.229733 -0.115982 2.263530 3.323003 -0.270657 0.503649 0.766290 -0.586128 1.205207 0.000000 0.000000 0.000000 0.000000 0.000000 0.000000 0.044187 -0.069742 -34.791151 -0.000000 0.000000 0.000000 -0.000000 0.000000 0.000000 0.000000 0.000000 0.000000 0.044187 -0.069742 -34.791151 -0.000000 0.000000 0.000000 -1.920709 -0.559917 0.735226 0.000000 0.000000 0.000000
37.121065 86.687696 371.282573 -0.155748 0.037388 34.843396 0.106465 -0.119669 -34.843234 -0.000000 0.000000 0.000000 -1.158432 -1.193632 -0.306340 0.000000 0.000000 0.000000 0.234878 -2.377647 2.652460 -0.026756 3.570926 -7.100589 0.002330 0.061693 -0.225567 0.051924 -1.249476 4.676691 0.000000 0.000000 0.000000 0.000000 0.000000 0.000000 0.548192 -0.649144 -0.385437 -0.283124 0.483262 4.115179 6.094655 -0.563148 1.269407 0.007859 -0.902146 1.192029 0.000000 0.000000 0.000000 0.000000 0.000000 0.000000 0.106465 -0.119669 -34.843234 -0.000000 0.000000 0.000000 -0.000000 0.000000 0.000000 0.000000 0.000000 0.000000 0.106465 -0.119669 -34.843234 -0.000000 0.000000 0.000000 -3.478062 -1.048126 1.323774 0.000000 0.000000 0.000000
37.039702 86.674839 371.270431 -0.239042 0.016004 34.935526 0.186802 -0.150008 -34.935248 -0.000000 0.000000 0.000000 -1.378240 -1.559680 -0.414238 0.000000 0.000000 0.000000 0.279620 -2.926381 3.264130 0.414712 4.434059 -10.897169 0.039253 0.091655 -0.380376 -0.262750 -1.662402 7.986044 0.000000 0.000000 0.000000 0.000000 0.000000 0.000000 0.629330 -0.806279 -0.459847 -0.501365 0.642566 4.979340 8.055793 -0.788048 1.977615 -1.413008 -1.089401 0.665158 0.000000 0.000000 0.000000 0.000000 0.000000 0.000000 0.186802 -0.150008 -34.935248 -0.000000 0.000000 0.000000 -0.000000 0.000000 0.000000 0.000000 0.000000 0.000000 0.186802 -0.150008 -34.935248 -0.000000 0.000000 0.000000 -4.644926 -1.444021 1.762630 0.000000 0.000000 0.000000
36.949398 86.666742 371.285733 -0.326009 -0.032091 35.067596 0.285268 -0.161041 -35.067287 -0.000000 0.000000 0.000000 -1.357213 -1.774083 -0.487359 0.000000 0.000000 0.000000 0.254497 -3.054243 3.400374 1.114809 4.651700 -14.922412 0.102981 0.122441 -0.576675 -0.821208 -1.969591 12.014158 0.000000 0.000000 0.000000 0.000000 0.000000 0.000000 0.581967 -0.850191 -0.456140 -0.756478 0.736081 5.160397 9.064180 -0.915333 2.435734 -3.148973 -1.215296 -0.064362 0.000000 0.000000 0.000000 0.000000 0.000000 0.000000 0.285268 -0.161041 -35.067287 -0.000000 0.000000 0.000000 0.296690 0.708100 -0.358688 0.000000 0.000000 0.000000 0.285268 -0.161041 -35.067287 -0.000000 0.000000 0.000000 -5.405061 -1.732499 2.051981 0.000000 0.000000 0.000000
36.850154 86.663405 371.328479 -0.416701 -0.106928 35.239779 0.402036 -0.153104 -35.239631 -0.000000 0.000000 0.000000 -1.092861 -1.836804 -0.524382 0.000000 0.000000 0.000000 0.156388 -2.761728 3.061696 2.054854 4.196615 -19.198073 0.196438 0.154718 -0.824439 -1.642813 -2.204799 16.809064 0.000000 0.000000 0.000000 0.000000 0.000000 0.000000 0.406282 -0.780904 -0.374333 -1.050207 0.768299 4.687261 9.097988 -0.946717 2.582847 -5.272080 -1.300613 -1.000001 0.000000 0.000000 0.000000 0.000000 0.000000 0.000000 0.402036 -0.153104 -35.239631 -0.000000 0.000000 0.000000 0.428304 0.775833 -0.451531 0.000000 0.000000 0.000000 0.402036 -0.153104 -35.239631 -0.000000 0.000000 0.000000 -5.751877 -1.904348 2.193893 0.000000 0.000000 0.000000
36.755043 86.655380 371.425143 -0.498252 -0.194161 35.396638 0.518619 -0.130335 -35.396892 -0.000000 0.000000 0.000000 -0.880489 -1.795217 -0.523495 0.000000 0.000000 0.000000 0.285882 -2.843424 3.173906 4.038559 1.336381 -24.953755 0.497819 0.116654 -1.119705 -4.903723 -0.586459 22.728907 0.000000 0.000000 0.000000 0.000000 0.000000 0.000000 0.108975 -0.833086 -0.285584 -1.201899 0.934594 3.914280 9.434016 -0.814501 3.814120 -10.065151 -1.326664 -3.687266 0.000000 0.000000 0.000000 0.000000 0.000000 0.000000 0.518619 -0.130335 -35.396892 -0.000000 0.000000 0.000000 0.722799 0.617033 -0.574954 0.000000 0.000000 0.000000 0.518619 -0.130335 -35.396892 -0.000000 0.000000 0.000000 -5.767089 -1.777456 2.162033 0.000000 0.000000 0.000000
36.644765 86.642762 371.496208 -0.613463 -0.320593 35.911178 0.684894 -0.100167 -35.912295 -0.000000 0.000000 0.000000 -0.114325 -1.610102 -0.510261 0.000000 0.000000 0.000000 0.431077 -2.193696 2.481551 5.633633 -1.178237 -33.049922 0.768251 0.154695 -1.649493 -7.599954 -0.785898 32.119051 0.000000 0.000000 0.000000 0.000000 0.000000 0.000000 -0.000000 0.000000 0.000000 -1.491347 0.255241 2.047810 6.820380 -0.802116 2.220936 -15.798781 -0.386234 -6.432725 0.000000 0.000000 0.000000 0.000000 0.000000 0.000000 1.422989 0.624366 -35.822231 -0.174477 -1.019448 -0.094994 0.848661 0.591903 -0.639311 0.000000 0.000000 0.000000 0.684894 -0.100167 -35.912295 -0.000000 0.000000 0.000000 -5.258003 -1.534647 1.955556 0.000000 0.000000 0.000000
36.496293 86.676685 371.630335 -0.756798 -0.501167 36.195562 0.906692 -0.042505 -36.198536 -0.000000 0.000000 0.000000 1.262547 -1.298575 -0.499384 0.000000 0.000000 0.000000 -0.000000 0.000000 0.000000 6.966320 -3.556677 -36.812259 0.884666 0.219846 -2.032307 -8.528422 -1.859233 38.916370 0.000000 0.000000 0.000000 0.000000 0.000000 0.000000 -0.000000 0.000000 0.000000 -2.503746 0.607492 -0.543716 6.067815 -0.763915 3.551253 -25.479731 1.770314 -12.111447 0.000000 0.000000 0.000000 0.000000 0.000000 0.000000 1.902604 0.931474 -36.080939 -0.231416 -1.373626 -0.128097 1.064874 0.651010 -0.778112 0.000000 0.000000 0.000000 0.906692 -0.042505 -36.198536 -0.000000 0.000000 0.000000 -4.651555 -1.433103 1.761246 0.000000 0.000000 0.000000
36.371338 86.765043 371.789058 -0.847574 -0.664750 34.675648 1.075217 0.064416 -34.681170 -0.000000 0.000000 0.000000 2.877111 -0.715549 -0.432246 0.000000 0.000000 0.000000 -0.211933 3.206998 -3.557913 7.571762 -5.127976 -36.377439 0.845333 0.296924 -2.234879 -7.618222 -3.293476 42.488123 0.000000 0.000000 0.000000 0.000000 0.000000 0.000000 -1.241428 0.469943 0.589281 -2.994263 0.837148 -4.827019 4.327416 -0.957019 4.297295 -34.295372 4.997198 -17.413515 0.000000 0.000000 0.000000 0.000000 0.000000 0.000000 2.000519 0.990869 -34.569385 -0.236381 -1.287844 -0.122963 1.309348 0.675689 -0.923702 0.000000 0.000000 0.000000 2.003517 0.211053 -34.657531 -0.680241 -0.648482 -0.029720 -3.954991 -1.107618 1.473842 0.000000 0.000000 0.000000
36.241306 86.841248 371.963495 -0.854078 -0.823524 34.819083 1.171378 0.188331 -34.827146 -0.000000 0.000000 0.000000 4.375931 0.233497 -0.271119 0.000000 0.000000 0.000000 -2.255542 8.990934 -9.872135 10.315857 -7.376469 -30.454891 0.694017 0.385207 -2.326778 -5.496859 -4.847219 43.784633 0.000000 0.000000 0.000000 0.000000 0.000000 0.000000 -3.116914 1.872713 1.724299 -4.233586 0.762528 -9.809652 0.484711 -1.228056 4.249377 -37.760934 3.640131 -18.418803 0.000000 0.000000 0.000000 0.000000 0.000000 0.000000 2.224385 1.047682 -34.696762 -0.376752 -1.305847 -0.146036 1.573034 0.691071 -1.077868 0.000000 0.000000 0.000000 2.331743 0.314461 -34.810516 -0.880789 -0.765890 -0.027609 -2.628943 -0.980651 1.066434 0.000000 0.000000 0.000000
36.116937 87.106391 372.018782 -0.694089 -0.098172 35.576057 0.621652 -0.323959 -35.574894 -0.000000 0.000000 0.000000 6.499814 -0.152049 -0.536521 0.000000 0.000000 0.000000 -4.268986 17.138203 -18.306366 13.900352 -10.625796 -17.044887 0.426393 0.453071 -2.157083 -2.180884 -5.357716 40.647828 0.000000 0.000000 0.000000 0.000000 0.000000 0.000000 -4.575608 3.115414 2.689821 -6.951419 1.536649 -14.417182 -1.310230 -2.100683 0.934345 -35.326465 4.448263 -18.112921 0.000000 0.000000 0.000000 0.000000 0.000000 0.000000 1.874755 0.407655 -35.401114 0.199484 -1.263934 0.018570 0.945819 0.693409 -1.372392 0.000000 0.000000 0.000000 1.815928 -0.556357 -35.611239 -1.106207 -0.506514 0.040629 -1.507777 -1.231114 0.831959 0.000000 0.000000 0.000000
35.929624 86.996796 372.207183 -0.781987 -0.602021 39.165062 0.986496 -0.027141 -39.168937 -0.000000 0.000000 0.000000 9.153820 2.427961 -0.125029 0.000000 0.000000 0.000000 -5.293946 26.590471 -27.992561 14.449841 -11.177916 -1.596262 0.537533 0.720065 -4.024668 11.984529 -11.140153 37.284924 0.000000 0.000000 0.000000 0.000000 0.000000 0.000000 -6.648091 4.347305 3.933714 -9.819235 3.068919 -19.079754 -4.128280 -2.530663 -2.277682 -27.782111 6.102487 -17.338613 0.000000 0.000000 0.000000 0.000000 0.000000 0.000000 2.581864 0.845435 -38.968067 0.145162 -1.092706 0.130169 0.940225 0.198360 -1.539782 0.000000 0.000000 0.000000 2.275751 -1.260587 -39.379574 -1.503744 0.916236 0.570650 -2.069248 -3.141712 0.897254 0.000000 0.000000 0.000000
